HIERARCHY
ROOT root
{
	OFFSET	0	13.1	24.9
	CHANNELS 6  Xposition Yposition Zposition Xrotation Yrotation Zrotation
	JOINT spine_1
	{
		OFFSET	0	9.99999	0
		CHANNELS 3  Xrotation Yrotation Zrotation
		JOINT spine_2
		{
			OFFSET	0	112	-10
			CHANNELS 3  Xrotation Yrotation Zrotation
			JOINT spine_3
			{
				OFFSET	0	206.5	19.3
				CHANNELS 3  Xrotation Yrotation Zrotation
				JOINT spine_4
				{
					OFFSET	0	110.4	14.6
					CHANNELS 3  Xrotation Yrotation Zrotation
					JOINT neck_1
					{
						OFFSET	0	71.8	-50.3
						CHANNELS 3  Xrotation Yrotation Zrotation
						JOINT neck_2
						{
							OFFSET	0	86.2	-25.8
							CHANNELS 3  Xrotation Yrotation Zrotation
							JOINT head_ee
							{
								OFFSET	0	179.8	-8.7
								CHANNELS 3  Xrotation Yrotation Zrotation
								End Site
								{
									OFFSET	1	0	0
								}
							}
						}
					}
					JOINT left_clavicle
					{
						OFFSET	-43.2	22.4	-70.8
						CHANNELS 3  Xrotation Yrotation Zrotation
						JOINT left_shoulder
						{
							OFFSET	-93.9	-5.79999	48.7
							CHANNELS 3  Xrotation Yrotation Zrotation
							JOINT left_elbow
							{
								OFFSET	-291.4	-30.8	15.2
								CHANNELS 3  Xrotation Yrotation Zrotation
								JOINT left_lowarm_twist
								{
									OFFSET	-110.7	-3.89999	13.6
									CHANNELS 3  Xrotation Yrotation Zrotation
									JOINT left_hand
									{
										OFFSET	-110.7	-3.89999	13.6
										CHANNELS 3  Xrotation Yrotation Zrotation
										JOINT left_ee
										{
											OFFSET	-80.8	-5.10001	12.1
											CHANNELS 3  Xrotation Yrotation Zrotation
											End Site
											{
												OFFSET	1	0	0
											}
										}
									}
								}
							}
						}
					}
					JOINT right_clavicle
					{
						OFFSET	43.2	22.4	-70.8
						CHANNELS 3  Xrotation Yrotation Zrotation
						JOINT right_shoulder
						{
							OFFSET	93.9	-5.79999	48.7
							CHANNELS 3  Xrotation Yrotation Zrotation
							JOINT right_elbow
							{
								OFFSET	291.4	-30.8	15.2
								CHANNELS 3  Xrotation Yrotation Zrotation
								JOINT right_lowarm_twist
								{
									OFFSET	110.7	-3.89999	13.6
									CHANNELS 3  Xrotation Yrotation Zrotation
									JOINT right_hand
									{
										OFFSET	110.7	-3.89999	13.6
										CHANNELS 3  Xrotation Yrotation Zrotation
										JOINT right_ee
										{
											OFFSET	80.8	-5.10001	12.1
											CHANNELS 3  Xrotation Yrotation Zrotation
											End Site
											{
												OFFSET	1	0	0
											}
										}
									}
								}
							}
						}
					}
				}
			}
		}
	}
	JOINT left_hip
	{
		OFFSET	-82.8	-127.5	0.300001
		CHANNELS 3  Xrotation Yrotation Zrotation
		JOINT left_knee
		{
			OFFSET	-28.2	-396.7	2.2
			CHANNELS 3  Xrotation Yrotation Zrotation
			JOINT left_ankle
			{
				OFFSET	-11.7	-411.3	35.4
				CHANNELS 3  Xrotation Yrotation Zrotation
				JOINT left_toes
				{
					OFFSET	0	-60	-88.6
					CHANNELS 3  Xrotation Yrotation Zrotation
					JOINT left_foot_ee
					{
						OFFSET	-22.5	-16.5	-42.2
						CHANNELS 3  Xrotation Yrotation Zrotation
						End Site
						{
							OFFSET	1	0	0
						}
					}
				}
			}
		}
	}
	JOINT right_hip
	{
		OFFSET	82.8	-127.5	0.300001
		CHANNELS 3  Xrotation Yrotation Zrotation
		JOINT right_knee
		{
			OFFSET	28.2	-396.7	2.2
			CHANNELS 3  Xrotation Yrotation Zrotation
			JOINT right_ankle
			{
				OFFSET	11.7	-411.3	35.4
				CHANNELS 3  Xrotation Yrotation Zrotation
				JOINT right_toes
				{
					OFFSET	0	-60	-88.6
					CHANNELS 3  Xrotation Yrotation Zrotation
					JOINT right_foot_ee
					{
						OFFSET	22.5	-16.5	-42.2
						CHANNELS 3  Xrotation Yrotation Zrotation
						End Site
						{
							OFFSET	1	0	0
						}
					}
				}
			}
		}
	}
}
MOTION
Frames: 6
Frame Time: 0.02
391.555 721.904 -1204.45 -172.989980161 8.5840078747 170.987418235 2.69497 1.28329 5.39924 2.71069 0.937653 5.46967 2.79708 0.0395707 5.54907 2.7553 0.914116 5.47364 -22.8771 5.34334 -16.8344 -22.6765 18.0308 -13.1991 -0.0 0.0 -0.0 -0.260267 14.435 1.27944 -22.3864 -25.4338 47.8924 0.470102 -13.1093 0.0540159 3.75873 0.117186 -0.465715 -1.46247 8.53469 -5.90765 -0.0 0.0 -0.0 13.8608 26.5062 -27.6143 -13.0745 31.9719 -63.3857 0.823222 22.1855 -0.161404 17.6929 -0.280506 2.23373 -2.03963 -4.1279 11.7961 0.0 0.0 0.0 17.6815 -28.7809 3.59499 -10.3783 0.286239 1.56484 32.8607 22.4746 -4.36811 -18.0937 0.0 0.0 -0.0 0.0 -0.0 10.4006 9.11543 8.04376 -8.48328 -0.255221 -1.27572 22.5998 -22.3944 3.16241 15.1026 -0.0 -0.0 0.0 0.0 0.0 
391.555 721.904 -1204.45 -172.969511771 9.62138724252 170.858044317 2.69497 1.28329 5.39924 2.71069 0.937653 5.46967 2.79708 0.0395707 5.54907 2.7553 0.914116 5.47364 -22.8771 5.34334 -16.8344 -22.6765 18.0308 -13.1991 -0.0 0.0 -0.0 -0.260267 14.435 1.27944 -22.3864 -25.4338 47.8924 0.470102 -13.1093 0.0540159 3.75873 0.117186 -0.465715 -1.46247 8.53469 -5.90765 -0.0 0.0 -0.0 13.8608 26.5062 -27.6143 -13.0745 31.9719 -63.3857 0.823222 22.1855 -0.161404 17.6929 -0.280506 2.23373 -2.03963 -4.1279 11.7961 0.0 0.0 0.0 17.6815 -28.7809 3.59499 -10.3783 0.286239 1.56484 32.8607 22.4746 -4.36811 -18.0937 0.0 0.0 -0.0 0.0 -0.0 10.4006 9.11543 8.04376 -8.48328 -0.255221 -1.27572 22.5998 -22.3944 3.16241 15.1026 -0.0 -0.0 0.0 0.0 0.0 
391.555 721.904 -1204.45 -172.955596439 10.2644066805 170.777454842 2.69497 1.28329 5.39924 2.71069 0.937653 5.46967 2.79708 0.0395707 5.54907 2.7553 0.914116 5.47364 -22.8771 5.34334 -16.8344 -22.6765 18.0308 -13.1991 -0.0 0.0 -0.0 -0.260267 14.435 1.27944 -22.3864 -25.4338 47.8924 0.470102 -13.1093 0.0540159 3.75873 0.117186 -0.465715 -1.46247 8.53469 -5.90765 -0.0 0.0 -0.0 13.8608 26.5062 -27.6143 -13.0745 31.9719 -63.3857 0.823222 22.1855 -0.161404 17.6929 -0.280506 2.23373 -2.03963 -4.1279 11.7961 0.0 0.0 0.0 17.6815 -28.7809 3.59499 -10.3783 0.286239 1.56484 32.8607 22.4746 -4.36811 -18.0937 0.0 0.0 -0.0 0.0 -0.0 10.4006 9.11543 8.04376 -8.48328 -0.255221 -1.27572 22.5998 -22.3944 3.16241 15.1026 -0.0 -0.0 0.0 0.0 0.0 
391.555 721.904 -1204.45 -172.925345019 11.5330332821 170.617466552 2.69497 1.28329 5.39924 2.71069 0.937653 5.46967 2.79708 0.0395707 5.54907 2.7553 0.914116 5.47364 -22.8771 5.34334 -16.8344 -22.6765 18.0308 -13.1991 -0.0 0.0 -0.0 -0.260267 14.435 1.27944 -22.3864 -25.4338 47.8924 0.470102 -13.1093 0.0540159 3.75873 0.117186 -0.465715 -1.46247 8.53469 -5.90765 -0.0 0.0 -0.0 13.8608 26.5062 -27.6143 -13.0745 31.9719 -63.3857 0.823222 22.1855 -0.161404 17.6929 -0.280506 2.23373 -2.03963 -4.1279 11.7961 0.0 0.0 0.0 17.6815 -28.7809 3.59499 -10.3783 0.286239 1.56484 32.8607 22.4746 -4.36811 -18.0937 0.0 0.0 -0.0 0.0 -0.0 10.4006 9.11543 8.04376 -8.48328 -0.255221 -1.27572 22.5998 -22.3944 3.16241 15.1026 -0.0 -0.0 0.0 0.0 0.0 
414.131212515 714.399 -1195.57721417 -170.959836176 -3.18065615304 171.862027817 2.80917 1.26486 5.37052 2.82473 0.921076 5.43983 2.90855 0.0387386 5.51689 2.86725 0.908235 5.44198 -18.0903 -0.00765408 -16.1145 -17.4587 8.7489 -15.1148 -0.0 0.0 -0.0 -0.13959 18.7875 1.98645 -22.3461 -24.9848 54.4135 0.541435 -15.0142 0.0713498 4.89003 0.146444 -0.607264 -1.82442 10.5785 -7.2898 -0.0 0.0 -0.0 13.3782 25.604 -26.5998 -10.1305 32.9765 -59.5751 0.902359 24.0844 -0.192501 18.567 -0.276363 2.34531 -1.95863 -5.88332 10.4135 0.0 0.0 0.0 18.3889 -30.2869 5.34759 -3.84989 0.139256 0.574319 32.0199 26.1874 -4.369 -15.8476 0.0 0.0 -0.0 0.0 -0.0 10.0186 5.89403 10.9995 -7.26139 -0.230156 -1.0899 30.4858 -26.0543 4.19018 11.3624 -0.0 -0.0 0.0 0.0 0.0 
423.668364677 713.962 -1194.48818967 -170.670155093 -7.11073324184 172.543684902 2.52407 1.26231 5.36656 2.53962 0.918786 5.43572 2.62447 0.00971045 5.51259 2.58317 0.878891 5.44229 -18.1429 -0.301949 -16.0242 -17.5073 8.11823 -15.1346 -0.0 0.0 -0.0 0.259526 19.3665 2.6463 -22.3764 -24.8605 55.7817 0.54463 -15.0987 0.0721799 4.68824 0.14143 -0.581974 -1.78922 10.2416 -7.22343 -0.0 0.0 -0.0 13.3564 25.3782 -26.5752 -9.76135 33.1534 -58.3027 0.904681 24.1393 -0.19345 18.7216 -0.275453 2.36503 -1.93475 -6.01254 10.1929 0.0 0.0 0.0 18.4044 -30.2494 6.08833 -2.24107 0.0857649 0.333214 31.9081 27.1382 -4.38363 -15.6042 0.0 0.0 -0.0 0.0 -0.0 10.4429 5.06374 11.3503 -7.07309 -0.225941 -1.06131 32.0108 -26.8756 4.38762 11.641 -0.0 -0.0 0.0 0.0 0.0 
